<?xml version="1.0" encoding="UTF-8"?>
<svg id="Layer_1" data-name="Layer 1" xmlns="http://www.w3.org/2000/svg" viewBox="0 0 247.03 51.63">
  <path d="M34.91,20.63c-.89-5.58-5.24-10.21-13.61-10.21-9.37,0-15.39,5.35-15.39,16.29,0,7.53,4.07,15.28,15.06,15.28,6.97,0,12.21-3.29,13.94-11.1h5.91c-.89,8.81-8.59,16.23-19.91,16.23C10.88,47.13,0,41.55,0,26.1,0,14.5,7.25,5.3,20.86,5.3c8.03,0,18.91,3.46,19.97,15.34h-5.91Z"/>
  <g>
    <path d="M107.24,5.83h20.19c11.93,0,17.4,7.81,17.4,19.35s-4.85,20.47-17.07,20.47h-20.52V5.83Zm20.25,34.69c9.7,0,11.43-8.14,11.43-15.23s-2.29-14.33-12.55-14.33h-13.22v29.56h14.33Z"/>
    <path d="M149.3,5.83h5.91V45.65h-5.91V5.83Z"/>
    <path d="M194.47,26.91h-27.1v18.74h-5.91V5.83h5.91v15.95h27.1V5.83h5.91V45.65h-5.91V26.91Z"/>
  </g>
  <path d="M235.21,34.05h-19.52l-5.08,11.6h-6.36L222.27,5.83h6.75l18.01,39.82h-6.75l-5.08-11.6Zm-9.82-22.75l-7.47,17.62h15.11l-7.64-17.62Z"/>
  <g>
    <path d="M99.93,26.41c0,7.67-3.27,14.58-8.5,19.41-1.03,.95-2.14,1.82-3.31,2.6,3.83-3.77,6.21-9.02,6.21-14.82,0-11.49-9.31-20.8-20.8-20.8s-20.8,9.31-20.8,20.8c0,5.8,2.37,11.05,6.21,14.82-1.17-.78-2.28-1.65-3.31-2.6-5.23-4.82-8.5-11.73-8.5-19.41C47.12,11.82,58.94,0,73.52,0s26.41,11.82,26.41,26.41Z"/>
    <path d="M91.96,33.94c0,6.02-2.88,11.36-7.34,14.73,2.28-2.59,3.66-5.99,3.66-9.72,0-8.14-6.6-14.74-14.74-14.74s-14.74,6.6-14.74,14.74c0,3.72,1.38,7.12,3.66,9.72-4.46-3.36-7.34-8.71-7.34-14.73,0-10.18,8.25-18.43,18.43-18.43s18.43,8.25,18.43,18.43Z"/>
    <path d="M85.95,39.2c0,3.14-1.16,6-3.08,8.19-2.28,2.6-5.62,4.24-9.35,4.24s-7.07-1.64-9.35-4.24c-1.92-2.19-3.08-5.05-3.08-8.19,0-6.86,5.56-12.43,12.43-12.43s12.43,5.56,12.43,12.43Z"/>
  </g>
</svg>